/* XPM */
static char *_5157f7119d340a2b8cb0cd0b58c70f6nQBbZEjea6c04mm8[] = {
/* columns rows colors chars-per-pixel */
"16 16 35 1 ",
"  c #060608",
". c #070709",
"X c #08080A",
"o c #09090B",
"O c #0A0A0C",
"+ c #0B0B0D",
"@ c #0C0C0E",
"# c #0D0D0F",
"$ c #0E0E10",
"% c #0F0F11",
"& c #101012",
"* c #111113",
"= c #121214",
"- c #131315",
"; c #141416",
": c #151517",
"> c #161618",
", c #171719",
"< c #18181A",
"1 c #19191B",
"2 c #1A1A1C",
"3 c #1B1B1D",
"4 c #1C1C1E",
"5 c #1D1D1F",
"6 c #1E1E20",
"7 c #1F1F21",
"8 c #202022",
"9 c #212123",
"0 c #222224",
"q c #232325",
"w c #242426",
"e c #252527",
"r c #262628",
"t c #272729",
"y c #2B2B2D",
/* pixels */
"O@@$&&&-$&&&&@OO",
"OO@$&&-&&-&&$$Oo",
"O@@&&;;>;;;-&$@O",
"@@$&;><<3>>;&$@O",
"$@$-;<5655<>-$$@",
"$$$->360865>-&$@",
"$&&-<50rw05<;$$$",
"$$&-<60tr053;-$$",
"@$&;36wryr6>-&OO",
"@$&;<60rr85<>;-&",
"@@&-<560063<;&@O",
"@@@-;<5653<;;&O.",
"O@$&-><3>>;;;-$@",
"@O@$&;><<;&$@@o.",
"O@O$&&-;>-$$@$O@",
"OOO@$$-;$@$-<6wr"
};
